PP_AM2_Trial_4_OSim_ik										
version=1										
nRows=99										
nColumns=11										
inDegrees=yes										
										
"Units are S.I. units (second, meters, Newtons, ...)"										
Angles are in degrees.										
										
endheader										
time	secondmc_rx	secondmc_rz	secondmc_ry	secondmc_tx	secondmc_ty	secondmc_tz	2MCP_flexion	2MCP_abduction	2PIP_flexion	2DIP_flexion
11.6167	-33.4696	-5.1119	-100.7351	0.0067995	0.070411	0.06369	-12.0187	15	30.2665	51.7443
11.625	-33.473	-5.1165	-100.7434	0.0068027	0.070409	0.063701	-12.0192	15	30.2677	51.7457
11.6333	-33.4777	-5.1226	-100.7543	0.0068059	0.070407	0.063714	-12.0199	15	30.2693	51.7477
11.6417	-33.4836	-5.1301	-100.7678	0.0068092	0.070403	0.063729	-12.021	15	30.2712	51.7502
11.65	-33.4909	-5.1389	-100.7838	0.0068129	0.070398	0.063745	-12.0225	15	30.2735	51.7531
11.6583	-33.4992	-5.1488	-100.8017	0.006817	0.070393	0.063762	-12.0243	15	30.2759	51.7564
11.6667	-33.5084	-5.1593	-100.8209	0.0068217	0.070386	0.063778	-12.0264	15	30.2784	51.7601
11.675	-33.518	-5.17	-100.8405	0.0068273	0.070379	0.063794	-12.0288	15	30.2809	51.7638
11.6833	-33.5278	-5.1803	-100.8597	0.0068338	0.070371	0.063807	-12.0315	15	30.2833	51.7676
11.6917	-33.5373	-5.1898	-100.8774	0.0068414	0.070363	0.063817	-12.0344	15	30.2853	51.7711
11.7	-33.5462	-5.1981	-100.8932	0.0068501	0.070356	0.063823	-12.0373	15	30.287	51.7744
11.7083	-33.5541	-5.2049	-100.9065	0.00686	0.070349	0.063825	-12.0403	15	30.2882	51.7772
11.7167	-33.5611	-5.2101	-100.917	0.006871	0.070343	0.063823	-12.0432	15	30.289	51.7796
11.725	-33.5669	-5.2137	-100.9249	0.0068829	0.070339	0.063816	-12.046	15	30.2893	51.7815
11.7333	-33.5715	-5.2159	-100.9302	0.0068952	0.070337	0.063806	-12.0487	15	30.2892	51.7828
11.7417	-33.5751	-5.2168	-100.9333	0.0069077	0.070337	0.063793	-12.051	15	30.2889	51.7838
11.75	-33.5777	-5.2167	-100.9346	0.0069197	0.070338	0.063779	-12.0531	15	30.2883	51.7844
11.7583	-33.5794	-5.2158	-100.9344	0.0069309	0.070341	0.063764	-12.055	15	30.2875	51.7847
11.7667	-33.5803	-5.2144	-100.9333	0.0069409	0.070345	0.063749	-12.0565	15	30.2867	51.7847
11.775	-33.5808	-5.2127	-100.9315	0.0069496	0.07035	0.063734	-12.0577	15	30.2859	51.7845
11.7833	-33.5808	-5.2108	-100.9294	0.0069566	0.070354	0.063721	-12.0587	15	30.2851	51.7843
11.7917	-33.5805	-5.2089	-100.9274	0.006962	0.070357	0.063709	-12.0595	15	30.2844	51.7839
11.8	-33.5801	-5.2072	-100.9254	0.0069656	0.070359	0.063699	-12.0601	15	30.2837	51.7836
11.8083	-33.5796	-5.2056	-100.9237	0.006967	0.07036	0.063691	-12.0606	15	30.2832	51.7833
11.8167	-33.5791	-5.2042	-100.9224	0.0069663	0.070358	0.063685	-12.061	15	30.2827	51.783
11.825	-33.5786	-5.203	-100.9214	0.0069632	0.070355	0.063682	-12.0612	15	30.2824	51.7827
11.8333	-33.5783	-5.2022	-100.9209	0.0069579	0.07035	0.063681	-12.0615	15	30.2821	51.7825
11.8417	-33.5781	-5.2015	-100.9206	0.0069507	0.070345	0.063682	-12.0618	15	30.2819	51.7824
11.85	-33.5782	-5.2011	-100.9207	0.0069423	0.070338	0.063684	-12.0622	15	30.2817	51.7824
11.8583	-33.5786	-5.2008	-100.921	0.0069336	0.070332	0.063687	-12.0627	15	30.2814	51.7824
11.8667	-33.5794	-5.2007	-100.9215	0.0069259	0.070327	0.06369	-12.0635	15	30.2811	51.7825
11.875	-33.5806	-5.2007	-100.9222	0.0069203	0.070322	0.063692	-12.0646	15	30.2807	51.7827
11.8833	-33.5822	-5.2009	-100.923	0.0069178	0.070318	0.063693	-12.066	15	30.2801	51.783
11.8917	-33.5844	-5.2011	-100.9239	0.0069194	0.070315	0.063692	-12.0679	15	30.2794	51.7834
11.9	-33.587	-5.2013	-100.9248	0.0069256	0.070313	0.06369	-12.0701	15	30.2785	51.7838
11.9083	-33.5899	-5.2015	-100.9258	0.0069366	0.070311	0.063686	-12.0727	15	30.2775	51.7843
11.9167	-33.5931	-5.2016	-100.9266	0.0069523	0.07031	0.063679	-12.0754	15	30.2763	51.7848
11.925	-33.5962	-5.2016	-100.9274	0.0069719	0.070309	0.063672	-12.0782	15	30.2752	51.7853
11.9333	-33.599	-5.2014	-100.9279	0.0069944	0.070308	0.063664	-12.0808	15	30.2741	51.7858
11.9417	-33.601	-5.201	-100.9282	0.0070185	0.070307	0.063656	-12.0829	15	30.2732	51.786
11.95	-33.6019	-5.2001	-100.9281	0.0070427	0.070305	0.063649	-12.0841	15	30.2726	51.7861
11.9583	-33.6012	-5.1988	-100.9276	0.0070655	0.070302	0.063644	-12.0842	15	30.2725	51.7859
11.9667	-33.5985	-5.1969	-100.9265	0.0070857	0.070298	0.063641	-12.0829	15	30.273	51.7854
11.975	-33.5936	-5.1944	-100.925	0.0071023	0.070294	0.063641	-12.08	15	30.2741	51.7844
11.9833	-33.5862	-5.1911	-100.9228	0.0071149	0.07029	0.063644	-12.0753	15	30.276	51.783
11.9917	-33.5765	-5.187	-100.9202	0.0071233	0.070286	0.063649	-12.069	15	30.2785	51.7812
12	-33.565	-5.1823	-100.9173	0.0071277	0.070283	0.063656	-12.0615	15	30.2815	51.779
12.0083	-33.5524	-5.1771	-100.9143	0.007129	0.07028	0.063664	-12.0534	15	30.2847	51.7766
12.0167	-33.54	-5.1718	-100.9115	0.0071278	0.070277	0.063672	-12.0455	15	30.2878	51.7742
12.025	-33.5295	-5.167	-100.9094	0.0071253	0.070273	0.06368	-12.0392	15	30.2903	51.7722
12.0333	-33.5231	-5.1632	-100.9086	0.0071225	0.070267	0.063686	-12.036	15	30.2915	51.7708
12.0417	-33.5232	-5.1614	-100.9096	0.0071203	0.070259	0.063691	-12.0375	15	30.2907	51.7706
12.05	-33.5326	-5.1625	-100.9132	0.0071196	0.070248	0.063694	-12.0457	15	30.2871	51.772
12.0583	-33.5541	-5.1677	-100.9199	0.0071208	0.070232	0.063695	-12.0625	15	30.2801	51.7756
12.0667	-33.5903	-5.1778	-100.9303	0.0071239	0.07021	0.063695	-12.0894	15	30.2689	51.7819
12.075	-33.6432	-5.1939	-100.9449	0.0071289	0.070183	0.063694	-12.1278	15	30.253	51.7913
12.0833	-33.714	-5.2165	-100.9637	0.0071352	0.070151	0.063693	-12.1783	15	30.2324	51.804
12.0917	-33.8027	-5.2461	-100.9867	0.0071422	0.070112	0.063691	-12.2406	15	30.207	51.8202
12.1	-33.9078	-5.2824	-101.0134	0.0071492	0.07007	0.06369	-12.3134	15	30.1775	51.8394
12.1083	-34.0262	-5.3247	-101.0428	0.0071555	0.070024	0.06369	-12.3946	15	30.1448	51.8614
12.1167	-34.1535	-5.3714	-101.0738	0.0071607	0.069977	0.063692	-12.4806	15	30.1104	51.8851
12.125	-34.2839	-5.4208	-101.1049	0.0071643	0.06993	0.063697	-12.5677	15	30.0757	51.9097
12.1333	-34.4114	-5.4706	-101.1347	0.0071661	0.069886	0.063703	-12.6517	15	30.0426	51.934
12.1417	-34.5302	-5.5185	-101.162	0.0071662	0.069845	0.063712	-12.7289	15	30.0125	51.957
12.15	-34.6359	-5.5626	-101.1858	0.0071651	0.06981	0.063722	-12.7965	15	29.9865	51.9777
12.1583	-34.7252	-5.6012	-101.2056	0.007163	0.069781	0.063733	-12.8527	15	29.9652	51.9955
12.1667	-34.7968	-5.6334	-101.2211	0.0071605	0.069759	0.063744	-12.8968	15	29.9489	52.01
12.175	-34.8505	-5.6589	-101.2324	0.0071581	0.069743	0.063754	-12.929	15	29.9373	52.0212
12.1833	-34.8875	-5.6776	-101.24	0.0071559	0.069733	0.063762	-12.9503	15	29.9301	52.0292
12.1917	-34.9097	-5.6903	-101.2442	0.0071543	0.069728	0.063767	-12.9622	15	29.9265	52.0344
12.2	-34.9198	-5.6976	-101.2458	0.0071532	0.069727	0.063771	-12.9664	15	29.9258	52.0371
12.2083	-34.9204	-5.7006	-101.2454	0.0071526	0.06973	0.063772	-12.9649	15	29.9273	52.0379
12.2167	-34.9143	-5.7002	-101.2437	0.0071524	0.069735	0.06377	-12.9595	15	29.9301	52.0372
12.225	-34.904	-5.6976	-101.2411	0.0071523	0.069741	0.063767	-12.9518	15	29.9336	52.0357
12.2333	-34.8917	-5.6936	-101.2381	0.0071519	0.069748	0.063762	-12.9431	15	29.9374	52.0336
12.2417	-34.879	-5.689	-101.2352	0.0071511	0.069756	0.063757	-12.9346	15	29.941	52.0313
12.25	-34.8671	-5.6843	-101.2326	0.0071494	0.069763	0.063751	-12.9268	15	29.9441	52.0291
12.2583	-34.857	-5.6801	-101.2304	0.0071467	0.06977	0.063745	-12.9204	15	29.9467	52.0272
12.2667	-34.8491	-5.6765	-101.2287	0.0071431	0.069777	0.063739	-12.9156	15	29.9486	52.0256
12.275	-34.8434	-5.6737	-101.2275	0.0071388	0.069783	0.063734	-12.9122	15	29.9498	52.0245
12.2833	-34.84	-5.6718	-101.2269	0.007134	0.069789	0.063731	-12.9104	15	29.9505	52.0237
12.2917	-34.8384	-5.6707	-101.2266	0.0071294	0.069794	0.063728	-12.9097	15	29.9506	52.0234
12.3	-34.8384	-5.6702	-101.2267	0.0071253	0.069798	0.063727	-12.91	15	29.9504	52.0233
12.3083	-34.8395	-5.6703	-101.227	0.0071221	0.069803	0.063726	-12.911	15	29.95	52.0235
12.3167	-34.8414	-5.6708	-101.2275	0.0071201	0.069807	0.063726	-12.9124	15	29.9494	52.0238
12.325	-34.8438	-5.6715	-101.228	0.0071194	0.069811	0.063727	-12.9141	15	29.9488	52.0242
12.3333	-34.8462	-5.6724	-101.2286	0.00712	0.069815	0.063727	-12.9157	15	29.9481	52.0247
12.3417	-34.8485	-5.6732	-101.2291	0.0071219	0.06982	0.063728	-12.9172	15	29.9475	52.0252
12.35	-34.8505	-5.6741	-101.2295	0.0071251	0.069824	0.063728	-12.9185	15	29.9471	52.0256
12.3583	-34.8521	-5.6748	-101.2298	0.0071295	0.069829	0.063727	-12.9196	15	29.9467	52.0259
12.3667	-34.8534	-5.6754	-101.2301	0.0071348	0.069834	0.063726	-12.9203	15	29.9465	52.0262
12.375	-34.8542	-5.6758	-101.2302	0.0071408	0.069838	0.063725	-12.9208	15	29.9463	52.0264
12.3833	-34.8547	-5.6761	-101.2303	0.007147	0.069843	0.063724	-12.921	15	29.9463	52.0265
12.3917	-34.855	-5.6763	-101.2302	0.0071531	0.069846	0.063723	-12.9211	15	29.9463	52.0266
12.4	-34.8549	-5.6764	-101.2302	0.0071586	0.069849	0.063721	-12.921	15	29.9464	52.0266
12.4083	-34.8548	-5.6765	-101.2301	0.007163	0.069852	0.06372	-12.9208	15	29.9465	52.0266
12.4167	-34.8546	-5.6765	-101.23	0.0071661	0.069854	0.06372	-12.9205	15	29.9467	52.0267
12.425	-34.8544	-5.6765	-101.2299	0.0071674	0.069855	0.06372	-12.9203	15	29.9469	52.0267
12.4333	-34.8542	-5.6766	-101.2298	0.007167	0.069857	0.063721	-12.9201	15	29.9471	52.0267
